<?xml version="1.0" encoding="utf-8"?>
<!-- Generator: Adobe Illustrator 14.0.0, SVG Export Plug-In . SVG Version: 6.00 Build 43363)  -->
<!DOCTYPE svg PUBLIC "-//W3C//DTD SVG 1.1//EN" "http://www.w3.org/Graphics/SVG/1.1/DTD/svg11.dtd">
<svg version="1.1" id="Layer_1" xmlns="http://www.w3.org/2000/svg" xmlns:xlink="http://www.w3.org/1999/xlink" x="0px" y="0px"
	 width="251.979px" height="110.768px" viewBox="0 0 251.979 110.768" enable-background="new 0 0 251.979 110.768"
	 xml:space="preserve">
<g>
	<path fill="#FFFFFF" d="M226.516,72.33c-4.74,0-8.996,2.034-11.979,5.262h-12.203c-3.686,0-7.881,0.127-6.863-6.61l10.168-64.313
		h-59.23l-8.262,52.366c-1.781,11.439-3.305,19.192-14.618,19.192c-12.074,0-11.186-7.245-9.277-19.192l8.262-52.366h-0.244
		l0.018-0.068c0,0-60.738-0.807-60.76-0.771c-3.289-0.06-6.914-0.032-10.957,0.077C36.333,6.287,23.751,9.083,21.208,27.513
		L19.81,38.189c-0.783,5.988-1.777,27.581,22.498,27.581h8.896c5.594,0,6.484,1.908,5.848,5.594l-0.254,2.033
		c-0.635,3.813-2.924,5.211-8.391,5.211c-11.818,0-31.338-0.89-36.295-1.398L9.144,97.188c10.238,1.888,22.525,3.536,40.918,3.536
		c12.582,0,30.631-0.762,31.52-24.657l0.256-8.008c1.27-10.168-1.016-26.945-20.336-26.945h-9.406c-6.865,0-7.373-2.16-6.736-6.102
		l0.254-1.398c0.891-5.338,3.432-5.592,10.297-5.592c0.082,0,0.168-0.002,0.254-0.002c0,0,27.521,0.232,38.154,0.428l-4.344,26.774
		c-6.738,42.324,12.711,45.121,29.996,45.121c15.379,0,37.114,3.559,43.596-37.496l4.756-35.038h9.318l-8.227,52.071
		c-2.287,14.362,6.355,19.828,17.922,19.828h27.203c2.98,3.228,7.236,5.262,11.977,5.262c9.014,0,16.32-7.307,16.32-16.32
		S235.529,72.33,226.516,72.33z M226.516,99.507c-5.986,0-10.855-4.871-10.855-10.857s4.869-10.857,10.855-10.857
		c5.988,0,10.857,4.871,10.857,10.857S232.504,99.507,226.516,99.507z"/>
</g>
</svg>
