<?xml version="1.0" encoding="utf-8"?>
<!-- Generator: Adobe Illustrator 14.0.0, SVG Export Plug-In . SVG Version: 6.00 Build 43363)  -->
<!DOCTYPE svg PUBLIC "-//W3C//DTD SVG 1.1//EN" "http://www.w3.org/Graphics/SVG/1.1/DTD/svg11.dtd">
<svg version="1.1" id="Layer_1" xmlns="http://www.w3.org/2000/svg" xmlns:xlink="http://www.w3.org/1999/xlink" x="0px" y="0px"
	 width="441.676px" height="197.404px" viewBox="0 0 441.676 197.404" enable-background="new 0 0 441.676 197.404"
	 xml:space="preserve">
<g>
	<g>
		<g>
			<path fill="#FFFFFF" d="M321.109,91.174c-4.74,0-8.996,2.035-11.979,5.262h-12.203c-3.686,0-7.881,0.127-6.863-6.609
				l10.168-64.313h-59.23l-8.262,52.366c-1.781,11.439-3.305,19.191-14.617,19.191c-12.074,0-11.186-7.244-9.277-19.191
				l8.262-52.366h-0.244l0.018-0.068c0,0-60.738-0.807-60.76-0.771c-3.289-0.061-6.914-0.033-10.957,0.076
				c-14.236,0.381-26.818,3.178-29.361,21.607l-1.398,10.676c-0.783,5.99-1.777,27.582,22.498,27.582h8.896
				c5.594,0,6.484,1.908,5.848,5.594l-0.254,2.033c-0.635,3.813-2.924,5.211-8.391,5.211c-11.818,0-31.338-0.891-36.295-1.398
				l-2.969,19.977c10.238,1.889,22.525,3.537,40.918,3.537c12.582,0,30.631-0.762,31.52-24.658l0.256-8.008
				c1.27-10.168-1.016-26.945-20.336-26.945h-9.406c-6.865,0-7.373-2.16-6.736-6.101l0.254-1.398
				c0.891-5.339,3.432-5.593,10.297-5.593c0.082,0,0.168-0.002,0.254-0.002c0,0,27.521,0.232,38.154,0.428l-4.344,26.775
				c-6.738,42.324,12.711,45.121,29.996,45.121c15.379,0,37.113,3.559,43.596-37.496l4.756-35.038h9.318l-8.227,52.071
				c-2.287,14.361,6.355,19.828,17.922,19.828h27.203c2.98,3.227,7.236,5.262,11.977,5.262c9.014,0,16.32-7.307,16.32-16.32
				S330.123,91.174,321.109,91.174z M321.109,118.352c-5.986,0-10.855-4.871-10.855-10.857s4.869-10.857,10.855-10.857
				c5.988,0,10.857,4.871,10.857,10.857S327.098,118.352,321.109,118.352z"/>
		</g>
	</g>
	<g>
		<path fill="#FFFFFF" d="M14.413,150.367c0-5.83,3.458-7.533,7.961-7.6c4.231-0.088,9.055,0.477,11.379,1.164v4.424
			c-2.573-0.227-8.371-0.402-9.831-0.402c-2.46-0.053-3.88,0.117-3.88,2.855v1.438c0,2.332,0.893,2.834,3.173,2.834h4.647
			c5.768,0,6.958,4.549,6.958,7.801v1.961c0,6.682-4.163,7.92-8.144,7.92c-5.022,0-8.313-0.309-11.356-1.205v-4.424
			c1.607,0.16,6.511,0.441,10.25,0.441c1.693,0,3.621-0.279,3.621-2.535v-1.584c0-1.672-0.507-2.746-2.656-2.746h-4.522
			c-7.097,0-7.6-5.24-7.6-7.799V150.367z"/>
		<path fill="#FFFFFF" d="M35.743,152.217l3.449-1.166l0.945-5.951h4.684v5.951h4.772v4.301h-4.772v8.564
			c0,3.145,0.726,3.816,1.828,4.227c0,0,2.412,0.844,2.693,0.844v3.457h-4.909c-3.162,0-5.241-1.973-5.241-7.643v-9.449h-3.449
			V152.217z"/>
		<path fill="#FFFFFF" d="M61.31,150.93c6.176,0,9.047,0.703,9.047,7.779c0,3.805-2.091,5.348-5.95,5.348H57.61
			c0,3.854,1.456,4.084,4.504,4.084c3.257,0,4.824,0.018,7.84-0.426v3.801c-3.014,1.123-7.599,1.125-10.937,1.125
			c-5.428,0-7.036-3.145-7.036-10.977C51.981,152.49,54.539,150.93,61.31,150.93z M62.946,160.016c1.172,0,1.781-0.576,1.781-1.594
			c0-2.695-0.384-3.191-3.09-3.191c-2.974,0-4.071,0.174-4.027,4.785H62.946z"/>
		<path fill="#FFFFFF" d="M73.091,144.355c0-0.604,0.322-1.006,0.966-1.006h4.222c0.603,0,0.902,0.443,0.902,1.006v3.564
			c0,0.604-0.34,0.924-0.902,0.924h-4.222c-0.563,0-0.966-0.361-0.966-0.924V144.355z M73.294,151.09h5.629v21.35h-5.629V151.09z"/>
		<path fill="#FFFFFF" d="M82.533,151.09h4.522l1.106,2.271c1.833-1.318,3.518-2.633,6.774-2.633c4.97,0,6.373,3.43,6.373,7.498
			v14.213h-5.629v-14.301c0-2.123-0.949-2.887-2.358-2.887c-2.266,0-3.502,0.582-5.16,1.85v15.338h-5.629V151.09z"/>
		<path fill="#FFFFFF" d="M104.648,140.877h5.593v11.279c1.954-0.891,4.674-1.389,6.483-1.389c5.916,0,6.97,4.457,6.97,11.098
			c0,6.477-1.715,10.816-6.97,10.816c-2.535,0-5.11-1.318-6.443-2.393l-1.004,2.15h-4.629V140.877z M115.265,167.871
			c1.817,0,2.801-1.465,2.801-6.227c0-5.447-1.023-6.463-2.801-6.463c-1.946,0-3.514,0.232-4.983,0.801v10.568
			C111.479,167.326,113.149,167.871,115.265,167.871z"/>
		<path fill="#FFFFFF" d="M126.377,164.988c0-3.107,1.679-5.857,6.255-5.857c0,0,6.271,0.041,6.271,0c0,0,0.041-1.326,0-1.367
			c0-2.275-1.065-2.633-2.854-2.633c-1.855,0-7.211,0.334-8.966,0.461v-3.477c2.811-1.092,5.747-1.408,9.728-1.428
			c4.598-0.018,7.722,1.57,7.722,6.855v14.896h-4.444l-1.185-2.352c-0.234,0.465-3.232,2.66-6.493,2.594
			c-4.107-0.111-6.033-2.908-6.033-5.684V164.988z M134.003,168.158c2.354,0,4.9-1.652,4.9-1.652v-3.914l-5.166,0.4
			c-1.486,0.139-1.731,1.238-1.731,2.17v1.037C132.006,167.975,132.967,168.158,134.003,168.158z"/>
		<path fill="#FFFFFF" d="M154.596,150.889c2.091,0,6.309,0.125,9.831,1.268v3.498c0,0-3.842-0.242-7.42-0.242
			c-2.59,0-3.818,0.154-3.818,6.449c0,5.467,0.923,6.256,3.818,6.256c3.699,0,7.701-0.375,7.701-0.375v3.533
			c-3.124,1.588-6.774,1.326-10.112,1.365c-3.98,0-7.036-2.08-7.036-10.896C147.56,152.947,150.495,150.889,154.596,150.889z"/>
		<path fill="#FFFFFF" d="M167.737,140.963h5.606v12.398c1.767-1.273,3.54-2.633,6.797-2.633c4.97,0,6.373,3.43,6.373,7.498v14.213
			h-5.629v-14.301c0-2.123-0.931-2.887-2.358-2.887c-2.266,0-3.502,0.582-5.16,1.85v15.338h-5.629V140.963z"/>
		<path fill="#FFFFFF" d="M190.457,143.008h5.629v16.566c0,6.729,1.492,7.881,5.71,7.881c3.759,0,5.468-1.387,5.468-7.881v-16.566
			h5.669v16.566c0,12.986-6.272,13.066-11.137,13.066c-5.469,0-11.339,0.322-11.339-13.066V143.008z"/>
		<path fill="#FFFFFF" d="M216.551,140.957h5.629v23c0,3.1,0.747,3.771,1.85,4.182c0,0,2.412,0.844,2.693,0.844v3.457h-4.644
			c-3.494,0-5.528-1.93-5.528-7.598V140.957z"/>
		<path fill="#FFFFFF" d="M226.296,152.217l3.449-1.166l0.945-5.951h4.684v5.951h4.772v4.301h-4.772v8.564
			c0,3.145,0.726,3.816,1.828,4.227c0,0,2.412,0.844,2.693,0.844v3.457h-4.909c-3.162,0-5.241-1.973-5.241-7.643v-9.449h-3.449
			V152.217z"/>
		<path fill="#FFFFFF" d="M242.533,144.355c0-0.604,0.322-1.006,0.966-1.006h4.222c0.603,0,0.902,0.443,0.902,1.006v3.564
			c0,0.604-0.34,0.924-0.902,0.924h-4.222c-0.563,0-0.966-0.361-0.966-0.924V144.355z M242.736,151.09h5.629v21.35h-5.629V151.09z"
			/>
		<path fill="#FFFFFF" d="M251.976,151.09h4.522l1.106,2.309c1.899-1.363,3.428-2.615,6.647-2.615c2.725,0,4.654,1.033,5.535,2.76
			c1.913-1.398,4.362-2.76,7.675-2.76c4.717,0,6.373,3.193,6.373,7.516v14.141h-5.629v-14.229c0-1.996-0.931-2.904-2.358-2.904
			c-2.159,0-3.723,0.412-5.227,1.676c0,0.178,0.022,1.082,0.022,1.281v14.176h-5.629v-14.229c0-1.996-0.949-2.904-2.377-2.904
			c-2.211,0-3.375,0.564-5.033,1.83v15.303h-5.629V151.09z"/>
		<path fill="#FFFFFF" d="M286.531,164.988c0-3.107,1.679-5.857,6.255-5.857c0,0,6.271,0.041,6.271,0c0,0,0.041-1.326,0-1.367
			c0-2.275-1.065-2.633-2.854-2.633c-1.855,0-7.211,0.334-8.966,0.461v-3.477c2.811-1.092,5.747-1.408,9.728-1.428
			c4.598-0.018,7.722,1.57,7.722,6.855v14.896h-4.444l-1.185-2.352c-0.234,0.465-3.232,2.66-6.493,2.594
			c-4.107-0.111-6.033-2.908-6.033-5.684V164.988z M294.157,168.158c2.354,0,4.9-1.652,4.9-1.652v-3.914l-5.166,0.4
			c-1.486,0.139-1.731,1.238-1.731,2.17v1.037C292.16,167.975,293.121,168.158,294.157,168.158z"/>
		<path fill="#FFFFFF" d="M306.796,152.217l3.449-1.166l0.945-5.951h4.684v5.951h4.772v4.301h-4.772v8.564
			c0,3.145,0.726,3.816,1.828,4.227c0,0,2.412,0.844,2.693,0.844v3.457h-4.909c-3.162,0-5.241-1.973-5.241-7.643v-9.449h-3.449
			V152.217z"/>
		<path fill="#FFFFFF" d="M332.361,150.93c6.176,0,9.047,0.703,9.047,7.779c0,3.805-2.091,5.348-5.95,5.348h-6.796
			c0,3.854,1.456,4.084,4.504,4.084c3.257,0,4.824,0.018,7.84-0.426v3.801c-3.014,1.123-7.599,1.125-10.937,1.125
			c-5.428,0-7.036-3.145-7.036-10.977C323.033,152.49,325.591,150.93,332.361,150.93z M333.998,160.016
			c1.172,0,1.781-0.576,1.781-1.594c0-2.695-0.384-3.191-3.09-3.191c-2.974,0-4.071,0.174-4.027,4.785H333.998z"/>
		<path fill="#FFFFFF" d="M344.014,167.896c0-0.604,0.321-1.006,0.965-1.006h3.458c0.724,0,1.005,0.363,1.005,1.006v3.619
			c0,0.723-0.442,0.924-1.005,0.924h-3.458c-0.563,0-0.965-0.361-0.965-0.924V167.896z"/>
		<path fill="#FFFFFF" d="M360.548,150.889c2.091,0,6.309,0.125,9.831,1.268v3.498c0,0-3.842-0.242-7.42-0.242
			c-2.59,0-3.818,0.154-3.818,6.449c0,5.467,0.923,6.256,3.818,6.256c3.699,0,7.701-0.375,7.701-0.375v3.533
			c-3.124,1.588-6.774,1.326-10.112,1.365c-3.98,0-7.036-2.08-7.036-10.896C353.512,152.947,356.447,150.889,360.548,150.889z"/>
		<path fill="#FFFFFF" d="M382.312,150.889c7.353,0,9.74,2.693,9.74,11.178c0,7.922-2.277,10.574-9.74,10.574
			c-7.374,0-9.74-2.936-9.74-10.574C372.571,153.342,375.095,150.889,382.312,150.889z M382.312,168.117
			c3.171,0,4.111-0.43,4.111-6.051c0-5.98-0.756-6.654-4.111-6.654c-3.331,0-4.111,0.678-4.111,6.654
			C378.2,167.592,379.32,168.117,382.312,168.117z"/>
		<path fill="#FFFFFF" d="M395.403,151.09h4.522l1.106,2.309c1.899-1.363,3.428-2.615,6.647-2.615c2.725,0,4.654,1.033,5.535,2.76
			c1.913-1.398,4.362-2.76,7.675-2.76c4.717,0,6.373,3.193,6.373,7.516v14.141h-5.629v-14.229c0-1.996-0.931-2.904-2.358-2.904
			c-2.159,0-3.723,0.412-5.227,1.676c0,0.178,0.022,1.082,0.022,1.281v14.176h-5.629v-14.229c0-1.996-0.949-2.904-2.377-2.904
			c-2.211,0-3.375,0.564-5.033,1.83v15.303h-5.629V151.09z"/>
	</g>
</g>
</svg>
